<?xml version="1.0" standalone="no"?>
<!DOCTYPE svg PUBLIC "-//W3C//DTD SVG 20010904//EN"
 "http://www.w3.org/TR/2001/REC-SVG-20010904/DTD/svg10.dtd">
<svg version="1.0" xmlns="http://www.w3.org/2000/svg"
 width="225.000000pt" height="225.000000pt" viewBox="0 0 225.000000 225.000000"
 preserveAspectRatio="xMidYMid meet">
<metadata>
Created by potrace 1.16, written by Peter Selinger 2001-2019
</metadata>
<g transform="translate(0.000000,225.000000) scale(0.100000,-0.100000)"
fill="#000000" stroke="none">
<path d="M910 1590 l0 -40 -85 0 -85 0 0 -40 c0 -40 0 -40 -39 -40 -40 0 -40
0 -43 -42 l-3 -43 -87 -3 -88 -3 0 -39 c0 -40 0 -40 -40 -40 l-40 0 0 -130 c0
-128 0 -130 23 -130 18 0 19 -2 7 -10 -13 -9 -13 -10 0 -11 10 0 8 -3 -5 -9
-11 -5 -14 -9 -7 -9 7 -1 10 -5 7 -11 -3 -5 -1 -10 5 -10 6 0 8 -4 5 -10 -3
-5 5 -15 19 -22 14 -6 26 -17 26 -25 0 -7 7 -13 16 -13 8 0 13 -4 10 -9 -3 -5
1 -14 9 -21 8 -7 15 -19 15 -28 0 -8 7 -20 16 -26 9 -7 17 -24 17 -39 1 -15 8
-27 15 -27 7 0 11 -4 7 -10 -6 -10 48 -104 56 -96 2 3 13 -8 23 -23 12 -18 34
-32 62 -39 24 -7 52 -20 63 -31 10 -10 29 -21 42 -24 13 -3 44 -11 69 -17 26
-7 101 -10 180 -8 118 2 137 5 160 23 68 56 80 59 190 60 58 0 121 -3 139 -7
28 -5 38 -3 49 13 7 10 18 19 23 19 15 0 69 42 69 54 0 6 12 24 26 39 14 16
24 30 22 33 -3 2 3 40 12 84 15 73 15 80 1 80 -13 0 -13 2 -2 9 11 7 11 9 0
14 -11 4 -11 6 -1 6 7 1 10 6 7 11 -4 6 10 10 34 10 l41 0 0 40 0 40 -45 0
-45 0 0 45 0 45 -40 0 -40 0 0 125 0 125 -45 0 -45 0 0 -125 0 -125 -170 0
-170 0 0 40 0 40 -40 0 -40 0 0 -40 0 -40 40 0 40 0 0 -45 0 -45 -40 0 -40 0
0 -40 c0 -22 5 -40 10 -40 6 0 8 -12 5 -27 l-5 -28 11 28 c6 15 15 27 20 27 6
0 5 -8 -1 -20 -9 -16 -7 -24 5 -36 13 -14 15 -14 15 0 0 9 -5 16 -11 16 -5 0
-7 5 -4 10 4 6 11 8 16 5 5 -3 6 2 2 11 -4 12 -3 15 5 10 7 -4 12 -23 12 -42
0 -34 -4 -36 -45 -36 -32 0 -35 3 -35 42 l0 40 -45 0 -45 0 0 -45 0 -45 40 0
c41 0 45 -6 43 -67 -1 -9 14 -13 43 -13 l44 0 0 -45 0 -45 -212 2 -213 3 -3
43 -3 42 -85 0 -84 0 0 40 0 40 85 0 85 0 0 45 0 45 -125 0 -125 0 0 40 0 40
-45 0 -45 0 0 130 0 130 170 0 170 0 0 40 0 40 -40 0 -40 0 0 45 0 45 84 0 85
0 3 43 3 42 125 0 125 0 3 -42 c3 -43 3 -43 43 -43 l39 0 0 44 0 45 73 0 c39
-1 78 0 85 0 7 1 12 15 12 36 l0 35 -255 0 -255 0 0 -40z m850 -590 l0 -40
-255 0 -255 0 0 33 c0 19 3 37 7 40 3 4 118 7 255 7 l248 0 0 -40z m-90 -170
c0 -22 -4 -40 -10 -40 -5 0 -10 6 -10 13 0 9 -2 9 -8 -1 -7 -9 -53 -12 -198
-10 l-189 3 -3 38 -3 37 210 0 211 0 0 -40z"/>
<path d="M1080 1341 l0 -129 40 2 40 1 0 128 0 127 -40 0 -40 0 0 -129z"/>
<path d="M910 1125 l0 -85 -40 0 -40 0 0 -40 c0 -40 0 -40 39 -40 40 0 40 0
43 43 3 42 3 42 41 41 l37 -1 0 83 0 84 -40 0 -40 0 0 -85z"/>
</g>
</svg>
