<?xml version="1.0" standalone="no"?>
<!DOCTYPE svg PUBLIC "-//W3C//DTD SVG 20010904//EN"
 "http://www.w3.org/TR/2001/REC-SVG-20010904/DTD/svg10.dtd">
<svg version="1.0" xmlns="http://www.w3.org/2000/svg"
 width="225.000000pt" height="225.000000pt" viewBox="0 0 225.000000 225.000000"
 preserveAspectRatio="xMidYMid meet">
<metadata>
Created by potrace 1.11, written by Peter Selinger 2001-2013
</metadata>
<g transform="translate(0.000000,225.000000) scale(0.100000,-0.100000)"
fill="#000000" stroke="none">
<path d="M910 1590 l0 -40 -85 0 -85 0 0 -39 c0 -40 0 -40 -42 -43 -35 -2 -43
-7 -44 -23 -3 -70 4 -65 -89 -65 l-85 0 0 -40 0 -40 -40 0 -40 0 0 -130 c0
-97 3 -130 13 -130 8 0 9 -3 1 -8 -19 -13 -10 -66 16 -93 40 -41 75 -84 73
-90 -1 -3 11 -20 27 -38 18 -19 31 -45 32 -64 4 -48 79 -157 109 -157 27 0 83
-27 103 -49 11 -12 28 -21 38 -21 10 0 30 -7 43 -16 20 -13 56 -16 195 -16
l170 0 49 41 49 41 123 1 c82 0 125 -4 129 -12 9 -13 50 5 50 21 0 6 8 10 18
10 19 0 92 61 92 77 0 6 7 16 15 23 8 7 15 19 15 27 0 8 6 29 13 46 40 94 47
147 20 148 -15 0 -15 2 2 9 11 5 15 9 8 9 -7 1 -10 8 -6 17 4 10 14 14 29 11
22 -4 24 -1 24 40 l0 45 -47 -4 -48 -3 3 48 4 47 -41 0 -41 0 0 125 0 125 -45
0 -45 0 0 -125 0 -125 -170 0 -170 0 0 40 0 40 -40 0 -40 0 0 -40 0 -40 40 0
40 0 0 -45 0 -45 -43 0 -43 0 4 -40 4 -40 -46 0 -46 0 0 -45 0 -45 40 0 40 0
0 -40 0 -40 45 0 45 0 0 -45 0 -45 -212 2 -213 3 0 40 0 40 -87 3 -87 3 2 37
2 37 85 5 85 5 0 40 0 40 -128 3 -127 3 0 39 c0 39 0 39 -42 42 l-43 3 -3 128
-3 127 171 0 170 0 0 40 0 40 -40 0 -40 0 0 45 0 45 85 0 85 0 0 40 0 40 120
0 c66 0 123 0 128 0 4 0 8 -18 10 -40 3 -39 4 -40 43 -40 39 0 39 0 39 40 l0
40 55 1 c30 1 69 2 85 3 29 1 30 -1 30 -41 l0 -43 45 0 45 0 0 -40 0 -40 40 0
40 0 0 40 c0 40 0 40 -39 40 -42 0 -50 9 -45 52 2 25 0 27 -39 30 -41 3 -42 4
-45 41 l-3 37 -255 0 -254 0 0 -40z m352 -572 c-7 -7 -12 -8 -12 -2 0 14 12
26 19 19 2 -3 -1 -11 -7 -17z m445 16 c-3 -3 -12 -4 -19 -1 -8 3 -5 6 6 6 11
1 17 -2 13 -5z m-427 -70 c0 -3 -7 -1 -15 6 -8 7 -15 17 -15 22 0 5 7 3 15 -6
8 -8 15 -18 15 -22z m347 30 c-3 -3 -12 -4 -19 -1 -8 3 -5 6 6 6 11 1 17 -2
13 -5z m-437 -44 c0 -5 -5 -10 -11 -10 -5 0 -7 5 -4 10 3 6 8 10 11 10 2 0 4
-4 4 -10z m348 -87 c-49 -2 -127 -2 -175 0 -49 1 -9 3 87 3 96 0 136 -2 88 -3z
m-266 -61 c8 -9 7 -11 -6 -6 -10 4 -16 17 -15 38 2 27 2 28 6 6 3 -14 10 -31
15 -38z"/>
<path d="M1080 1340 l0 -131 40 3 40 2 0 128 0 128 -40 0 -40 0 0 -130z"/>
<path d="M1420 1298 l0 -83 40 0 40 0 0 83 0 82 -40 0 -40 0 0 -82z"/>
<path d="M830 1257 c0 -40 2 -43 28 -41 51 2 52 3 52 44 l0 40 -40 0 -40 0 0
-43z"/>
<path d="M910 1125 l0 -85 -43 0 -43 0 4 -40 c4 -39 5 -40 43 -40 39 0 39 0
39 40 0 37 2 40 28 41 15 1 33 1 40 0 9 -1 12 21 12 84 l0 85 -40 0 -40 0 0
-85z"/>
<path d="M2046 447 c-5 -15 -6 -31 -2 -34 11 -11 18 5 14 34 l-4 28 -8 -28z"/>
<path d="M2073 433 c3 -24 -1 -33 -11 -33 -8 0 -12 -6 -8 -15 4 -12 -6 -15
-59 -15 -57 0 -65 -2 -65 -19 0 -25 -84 -97 -88 -76 -5 22 -42 -1 -42 -25 0
-13 -14 -27 -40 -40 -22 -11 -40 -25 -40 -31 0 -6 -4 -8 -8 -5 -4 2 -8 -8 -7
-22 0 -23 -5 -27 -31 -30 -24 -2 -35 3 -46 21 -13 18 -26 24 -62 26 -45 2 -46
1 -46 -29 0 -29 2 -30 43 -30 47 0 58 -5 51 -24 -3 -7 -22 -11 -49 -9 -33 2
-45 -1 -45 -12 0 -7 -9 -17 -20 -20 -11 -3 -20 -12 -20 -19 0 -10 -24 -12
-102 -10 -64 2 -93 1 -78 -5 14 -4 233 -9 488 -10 l462 -2 0 135 0 136 -43 0
c-46 0 -69 14 -60 36 3 8 1 14 -5 14 -6 0 -8 10 -5 23 5 20 4 20 -8 6 -8 -9
-21 -19 -29 -21 -12 -5 -14 3 -12 41 2 25 -1 57 -7 71 -11 24 -11 24 -8 -7z
m-428 -413 c3 -5 -1 -10 -10 -10 -9 0 -13 5 -10 10 3 6 8 10 10 10 2 0 7 -4
10 -10z"/>
<path d="M197 418 c-12 -44 -1 -49 104 -47 75 2 99 6 99 16 0 7 -10 13 -22 14
-22 1 -22 1 2 9 17 5 -1 8 -57 9 -46 1 -83 5 -83 9 0 18 -38 9 -43 -10z"/>
<path d="M1790 410 l55 -7 -58 -1 c-42 -2 -57 -6 -55 -14 3 -9 32 -13 99 -13
90 0 94 1 97 23 3 22 2 22 -95 20 -86 -1 -91 -2 -43 -8z"/>
<path d="M2218 413 c7 -3 16 -2 19 1 4 3 -2 6 -13 5 -11 0 -14 -3 -6 -6z"/>
<path d="M90 345 c0 -23 -4 -25 -45 -25 l-45 0 0 -160 0 -160 360 0 c264 0
360 3 360 11 0 9 -24 10 -85 6 -57 -4 -85 -3 -85 5 0 6 11 8 26 5 35 -6 57 18
50 55 l-5 28 83 0 c92 0 116 5 116 25 0 7 13 19 30 27 39 17 38 28 -2 28 -18
0 -43 3 -55 6 -17 5 -23 2 -23 -9 0 -9 8 -18 18 -20 9 -3 -6 -5 -35 -6 -73 -1
-83 4 -83 50 0 28 -4 39 -15 39 -8 0 -15 5 -15 12 0 8 -3 9 -10 2 -6 -6 -12
-34 -14 -62 -5 -64 -16 -79 -64 -84 -20 -3 -45 -8 -54 -12 -12 -6 -18 -4 -18
6 0 7 -9 19 -20 26 -11 7 -20 21 -20 32 0 10 -9 24 -20 30 -17 9 -20 8 -20
-10 0 -11 -4 -20 -10 -20 -5 0 -10 15 -10 33 0 25 6 37 23 46 16 8 17 10 2 5
-11 -4 -36 -8 -55 -10 -19 -1 -25 0 -12 2 27 7 28 20 3 34 -15 8 -20 6 -23 -6
-2 -12 -14 -6 -46 25 -25 24 -48 38 -57 35 -10 -4 -15 0 -15 15 0 19 -6 21
-55 21 -52 0 -55 -1 -55 -25z m150 -45 c0 -5 -4 -10 -10 -10 -5 0 -10 5 -10
10 0 6 5 10 10 10 6 0 10 -4 10 -10z m260 -220 c0 -5 -2 -10 -4 -10 -3 0 -8 5
-11 10 -3 6 -1 10 4 10 6 0 11 -4 11 -10z"/>
<path d="M429 360 c-16 -3 -25 -13 -27 -29 -2 -22 0 -23 33 -17 19 4 51 4 70
0 34 -6 35 -7 19 -25 -16 -18 -16 -19 19 -19 31 0 39 5 53 31 16 31 16 32 -8
26 -13 -4 -30 -2 -38 3 -11 7 -7 10 18 10 17 0 32 4 32 9 0 10 -134 19 -171
11z"/>
<path d="M2237 363 c-4 -6 -4 -18 -1 -26 3 -10 -1 -17 -13 -20 -17 -4 -17 -5
0 -6 20 -1 31 18 25 46 -2 12 -6 14 -11 6z"/>
<path d="M1620 346 c0 -12 11 -15 50 -15 65 2 62 23 -3 27 -37 2 -47 0 -47
-12z"/>
<path d="M1195 308 c6 -14 2 -18 -16 -19 -19 -1 -20 -2 -5 -6 25 -7 44 13 27
30 -10 10 -11 9 -6 -5z"/>
<path d="M1523 313 c-7 -2 -13 -11 -13 -18 0 -22 71 -33 99 -16 35 22 -42 52
-86 34z m40 -20 c-7 -2 -21 -2 -30 0 -10 3 -4 5 12 5 17 0 24 -2 18 -5z"/>
<path d="M2203 293 c9 -2 23 -2 30 0 6 3 -1 5 -18 5 -16 0 -22 -2 -12 -5z"/>
<path d="M968 263 c7 -3 16 -2 19 1 4 3 -2 6 -13 5 -11 0 -14 -3 -6 -6z"/>
<path d="M918 253 c7 -3 16 -2 19 1 4 3 -2 6 -13 5 -11 0 -14 -3 -6 -6z"/>
<path d="M1460 218 c-1 -38 -2 -41 -14 -25 -18 23 -36 22 -36 -3 0 -17 7 -20
50 -20 l50 0 0 39 c0 44 -16 64 -23 29 l-4 -23 -2 23 c-2 40 -21 23 -21 -20z"/>
<path d="M1338 243 c-77 -5 -75 -23 2 -23 47 0 60 3 60 15 0 8 -1 14 -2 13 -2
-1 -29 -3 -60 -5z"/>
<path d="M898 223 c12 -2 32 -2 45 0 12 2 2 4 -23 4 -25 0 -35 -2 -22 -4z"/>
<path d="M1735 220 c-3 -5 -1 -10 4 -10 6 0 11 5 11 10 0 6 -2 10 -4 10 -3 0
-8 -4 -11 -10z"/>
<path d="M488 163 c6 -2 18 -2 25 0 6 3 1 5 -13 5 -14 0 -19 -2 -12 -5z"/>
<path d="M858 112 c-28 -3 -41 -22 -32 -47 6 -15 12 -17 69 -19 24 -1 30 -5
29 -23 -1 -22 2 -23 85 -22 47 1 74 4 59 6 -20 3 -28 10 -28 24 0 15 -7 19
-32 19 -55 0 -80 11 -75 31 6 21 -32 37 -75 31z"/>
<path d="M648 93 c6 -2 18 -2 25 0 6 3 1 5 -13 5 -14 0 -19 -2 -12 -5z"/>
<path d="M1538 93 c12 -2 32 -2 45 0 12 2 2 4 -23 4 -25 0 -35 -2 -22 -4z"/>
</g>
</svg>
